<svg viewBox="0 0 48 52" xmlns="http://www.w3.org/2000/svg" xmlns:xlink="http://www.w3.org/1999/xlink" id="Layer_1" overflow="hidden"><defs></defs><path d="M41 51 41 33.83C44.69 30.36 47 25.46 47 20 47 9.51 38.49 1 28 1 17.51 1 9 9.51 9 20 9 20 9 20.01 9 20.02L1.61 27.47C0.31 28.77 1.23 31.01 3.06 31.01L7 31.01 7 43.01C7 45.22 8.79 47.01 11 47.01L19 47.01 19 51.01" stroke="#000000" stroke-width="2" stroke-linecap="round" stroke-linejoin="round" fill="none"></path><path d="M28 39C28 43.42 23.97 47 19 47" stroke="#000000" stroke-width="2" stroke-linecap="round" stroke-linejoin="round" fill="none"></path><circle cx="28" cy="20" r="5" stroke="#000000" stroke-width="2" stroke-linecap="round" stroke-linejoin="round" fill="none"></circle><path d="M40 18 39.1 18C38.64 18 38.25 17.68 38.13 17.23 37.9 16.37 37.56 15.56 37.13 14.8 36.9 14.4 36.94 13.9 37.27 13.57L37.91 12.93C38.3 12.54 38.3 11.91 37.91 11.52L36.5 10.11C36.11 9.72 35.48 9.72 35.09 10.11L34.45 10.75C34.12 11.08 33.62 11.12 33.22 10.89 32.46 10.46 31.65 10.12 30.79 9.89 30.34 9.77 30.02 9.38 30.02 8.92L30.02 8.02C30.02 7.47 29.57 7.02 29.02 7.02L27.02 7.02C26.47 7.02 26.02 7.47 26.02 8.02L26.02 8.92C26.02 9.38 25.7 9.77 25.25 9.89 24.39 10.12 23.58 10.46 22.82 10.89 22.42 11.12 21.92 11.08 21.59 10.75L20.95 10.11C20.56 9.72 19.93 9.72 19.54 10.11L18.13 11.52C17.74 11.91 17.74 12.54 18.13 12.93L18.77 13.57C19.1 13.9 19.14 14.4 18.91 14.8 18.48 15.56 18.14 16.37 17.91 17.23 17.79 17.68 17.4 18 16.94 18L16.04 18C15.49 18 15.04 18.45 15.04 19L15.04 21C15.04 21.55 15.49 22 16.04 22L16.94 22C17.4 22 17.79 22.32 17.91 22.77 18.14 23.63 18.48 24.44 18.91 25.2 19.14 25.6 19.1 26.1 18.77 26.43L18.13 27.07C17.74 27.46 17.74 28.09 18.13 28.48L19.54 29.89C19.93 30.28 20.56 30.28 20.95 29.89L21.59 29.25C21.92 28.92 22.42 28.88 22.82 29.11 23.58 29.54 24.39 29.88 25.25 30.11 25.7 30.23 26.02 30.62 26.02 31.08L26.02 31.98C26.02 32.53 26.47 32.98 27.02 32.98L29.02 32.98C29.57 32.98 30.02 32.53 30.02 31.98L30.02 31.08C30.02 30.62 30.34 30.23 30.79 30.11 31.65 29.88 32.46 29.54 33.22 29.11 33.62 28.88 34.12 28.92 34.45 29.25L35.09 29.89C35.48 30.28 36.11 30.28 36.5 29.89L37.91 28.48C38.3 28.09 38.3 27.46 37.91 27.07L37.27 26.43C36.94 26.1 36.9 25.6 37.13 25.2 37.56 24.44 37.9 23.63 38.13 22.77 38.25 22.32 38.64 22 39.1 22L40 22C40.55 22 41 21.55 41 21L41 19C41 18.45 40.55 18 40 18Z" stroke="#000000" stroke-width="2" stroke-linejoin="round" fill="none"></path></svg>