<svg viewBox="0 0 26.93 25.94" xmlns="http://www.w3.org/2000/svg" xmlns:xlink="http://www.w3.org/1999/xlink" id="Layer_1" overflow="hidden"><defs></defs><g><path d="M26.93 16.28 26.93 1.45C26.93 0.65 26.28 0 25.48 0L5.4 0C4.6 0 3.95 0.65 3.95 1.45L3.95 7 4.98 7 4.98 5.54 25.9 5.54 25.9 16.29C25.9 16.52 25.71 16.71 25.48 16.71L24.19 16.71 24.19 17.74 25.48 17.74C26.28 17.74 26.93 17.09 26.93 16.29ZM4.98 4.5 4.98 1.45C4.98 1.22 5.17 1.03 5.4 1.03L25.48 1.03C25.71 1.03 25.9 1.22 25.9 1.45L25.9 4.5 4.98 4.5Z" stroke-width="0" fill="#000000"></path><path d="M23.68 3.23C23.94 3.23 24.15 3.02 24.15 2.76 24.15 2.5 23.94 2.29 23.68 2.29 23.42 2.29 23.21 2.5 23.21 2.76 23.21 3.02 23.42 3.23 23.68 3.23Z" stroke-width="0" fill="#000000"></path><path d="M21.51 3.23C21.77 3.23 21.98 3.02 21.98 2.76 21.98 2.5 21.77 2.29 21.51 2.29 21.25 2.29 21.04 2.5 21.04 2.76 21.04 3.02 21.25 3.23 21.51 3.23Z" stroke-width="0" fill="#000000"></path><path d="M15.39 11.44C15.65 11.44 15.86 11.23 15.86 10.97 15.86 10.71 15.65 10.5 15.39 10.5 15.13 10.5 14.92 10.71 14.92 10.97 14.92 11.23 15.13 11.44 15.39 11.44Z" stroke-width="0" fill="#000000"></path><path d="M19.35 3.23C19.61 3.23 19.82 3.02 19.82 2.76 19.82 2.5 19.61 2.29 19.35 2.29 19.09 2.29 18.88 2.5 18.88 2.76 18.88 3.02 19.09 3.23 19.35 3.23Z" stroke-width="0" fill="#000000"></path><path d="M0 24.49C0 25.29 0.65 25.94 1.45 25.94L21.53 25.94C22.33 25.94 22.98 25.29 22.98 24.49L22.98 9.66C22.98 8.86 22.33 8.21 21.53 8.21L1.45 8.21C0.65 8.21 0 8.86 0 9.66L0 24.49ZM1.03 9.66C1.03 9.43 1.22 9.24 1.45 9.24L21.53 9.24C21.76 9.24 21.95 9.43 21.95 9.66L21.95 12.71 1.03 12.71 1.03 9.66ZM1.03 13.74 21.95 13.74 21.95 24.49C21.95 24.72 21.76 24.91 21.53 24.91L1.45 24.91C1.22 24.91 1.03 24.72 1.03 24.49L1.03 13.74Z" stroke-width="0" fill="#000000"></path><path d="M19.73 11.44C19.99 11.44 20.2 11.23 20.2 10.97 20.2 10.71 19.99 10.5 19.73 10.5 19.47 10.5 19.26 10.71 19.26 10.97 19.26 11.23 19.47 11.44 19.73 11.44Z" stroke-width="0" fill="#000000"></path><path d="M17.56 11.44C17.82 11.44 18.03 11.23 18.03 10.97 18.03 10.71 17.82 10.5 17.56 10.5 17.3 10.5 17.09 10.71 17.09 10.97 17.09 11.23 17.3 11.44 17.56 11.44Z" stroke-width="0" fill="#000000"></path></g><path d="M8.2 18.74 11.19 21.21 15.24 15.75" stroke="#000000" stroke-linecap="round" stroke-miterlimit="10" fill="none"></path></svg>